<svg id="Layer_1" data-name="Layer 1" xmlns="http://www.w3.org/2000/svg" viewBox="0 0 20 20"><defs><style>.cls-1{fill:#fff;}</style></defs><g id="_8UXuAD" data-name="8UXuAD"><path class="cls-1" d="M16,9.83v1.83c0,.18,0,.37,0,.55s0,.22,0,.33a5,5,0,0,1-.06.54c0,.13,0,.26-.07.39s-.08.28-.13.41a2.8,2.8,0,0,1-.35.69,3.64,3.64,0,0,1-.6.64,4.12,4.12,0,0,1-.63.39,3.35,3.35,0,0,1-.53.19l-.4.09-.32,0-.28,0h-.21c-.2,0-.39,0-.59,0H9.28L8,16l-.4,0H7.32l-.36,0a4.59,4.59,0,0,1-.51-.1,3.2,3.2,0,0,1-.52-.18,3.15,3.15,0,0,1-.61-.36l-.15-.13L5,15a3.4,3.4,0,0,1-.64-.91,3.78,3.78,0,0,1-.24-.79c0-.13-.05-.25-.07-.37s0-.17,0-.26a2.36,2.36,0,0,0,0-.38c0-.16,0-.32,0-.48,0-.58,0-1.16,0-1.74S4,8.91,4,8.34C4,8.16,4,8,4,7.81s0-.24,0-.36a2.4,2.4,0,0,1,0-.28c0-.13,0-.25,0-.38A3.25,3.25,0,0,1,4.35,6a2.64,2.64,0,0,1,.44-.74A3.47,3.47,0,0,1,5,5a2.77,2.77,0,0,1,.62-.46,3.11,3.11,0,0,1,1-.36,2.62,2.62,0,0,1,.56-.09l.54,0h.51C9,4,9.83,4,10.64,4h1.55l.35,0c.21,0,.43,0,.64.07a4.1,4.1,0,0,1,.78.22,3.06,3.06,0,0,1,.51.26,4.08,4.08,0,0,1,.39.31,2.27,2.27,0,0,1,.31.31,2.73,2.73,0,0,1,.44.71,4.06,4.06,0,0,1,.24.72l.06.36c0,.14,0,.29,0,.44s0,.06,0,.1c0,.21,0,.42,0,.63C16,8.79,16,9.4,16,9.83ZM10,14.9c.45,0,1,0,1.62,0,.2,0,.4,0,.6,0s.24,0,.36,0l.46,0a2.42,2.42,0,0,0,.69-.22,2.9,2.9,0,0,0,.33-.2,1.62,1.62,0,0,0,.32-.32,1.83,1.83,0,0,0,.28-.46,2.38,2.38,0,0,0,.15-.45c0-.07,0-.15,0-.22s0-.33,0-.5,0-.23,0-.34,0-.45,0-.67c0-.5,0-1,0-1.49s0-1,0-1.49c0-.21,0-.42,0-.63a5.65,5.65,0,0,0,0-.59c0-.12,0-.23-.05-.34a2.54,2.54,0,0,0-.27-.71,2.07,2.07,0,0,0-.46-.52A.27.27,0,0,0,14,5.58a2,2,0,0,0-.51-.26l-.33-.1-.27,0c-.14,0-.28,0-.42,0s-.24,0-.37,0h-.68c-1,0-2.08,0-3.12,0a3.38,3.38,0,0,0-.45,0c-.14,0-.29,0-.44,0l-.22,0L7,5.19l-.24.06a2.26,2.26,0,0,0-.7.29,2.59,2.59,0,0,0-.35.31,1.29,1.29,0,0,0-.28.38,2.5,2.5,0,0,0-.25.71,6.18,6.18,0,0,0-.07.62c0,.12,0,.25,0,.37s0,.42,0,.64c0,.49,0,1,0,1.49s0,1,0,1.5c0,.21,0,.41,0,.62s0,.38,0,.56a2,2,0,0,0,.07.43,2.07,2.07,0,0,0,.4.88,2.6,2.6,0,0,0,.38.36,1.92,1.92,0,0,0,.51.27A2.49,2.49,0,0,0,7,14.8l.26,0a2,2,0,0,0,.35,0h.22l.39,0Z"/><path class="cls-1" d="M10,13.08a3.09,3.09,0,0,1-2.15-.84,3,3,0,0,1-1-2.34,3.09,3.09,0,0,1,3.19-3,3.09,3.09,0,0,1,3,3.2,3,3,0,0,1-.84,2A3,3,0,0,1,10,13.08Zm2-3a2,2,0,0,0-.58-1.45,2,2,0,0,0-2.82,0A1.92,1.92,0,0,0,8,10a2,2,0,0,0,2,2,1.92,1.92,0,0,0,1.4-.59A2,2,0,0,0,12,10.05Z"/><path class="cls-1" d="M12.47,6.8a.73.73,0,1,1,.71.73A.72.72,0,0,1,12.47,6.8Z"/></g></svg>