<svg id="Layer_1" data-name="Layer 1" xmlns="http://www.w3.org/2000/svg" viewBox="0 0 20 20"><defs><style>.cls-1{fill:#fff;}</style></defs><path class="cls-1" d="M10,4.74A5.26,5.26,0,1,0,15.26,10,5.27,5.27,0,0,0,10,4.74Zm1.67,10.12c-.26.09-.42,0-.42-.3,0-.44,0-.88,0-1.32a1.28,1.28,0,0,0-.33-1c.25,0,.48-.08.71-.14a2.05,2.05,0,0,0,1.61-1.88,2.47,2.47,0,0,0-.14-1.32,3.64,3.64,0,0,0-.28-.47.15.15,0,0,1,0-.17,2,2,0,0,0-.06-1.17c0-.07-.07-.1-.14-.09a2,2,0,0,0-.82.25c-.13.07-.25.16-.38.22a.23.23,0,0,1-.16,0,4.77,4.77,0,0,0-2.43,0,.34.34,0,0,1-.17,0A3,3,0,0,0,7.6,7c-.28-.06-.3,0-.38.22a1.93,1.93,0,0,0,0,1,.17.17,0,0,1,0,.12,2.12,2.12,0,0,0-.46,1.7,2.65,2.65,0,0,0,.31,1.06,2,2,0,0,0,1.2.9c.23.07.46.1.7.15l.12,0a1.32,1.32,0,0,0-.32.66.17.17,0,0,1-.08.06,1.07,1.07,0,0,1-1.44-.45,1,1,0,0,0-.68-.5,1.11,1.11,0,0,0-.26,0c-.07,0-.08.07,0,.12a1,1,0,0,0,.15.14A1.38,1.38,0,0,1,7,13a1.19,1.19,0,0,0,1.13.78c.21,0,.41,0,.63,0v.81a.28.28,0,0,1-.41.29A4.58,4.58,0,0,1,6.82,14,5,5,0,0,1,4.93,9.2a5.13,5.13,0,1,1,6.74,5.66Z"/><path class="cls-1" d="M10,16.14A6.14,6.14,0,1,1,16.14,10,6.14,6.14,0,0,1,10,16.14ZM10,4.79A5.21,5.21,0,1,0,15.21,10,5.22,5.22,0,0,0,10,4.79Z"/></svg>