<svg id="Layer_1" data-name="Layer 1" xmlns="http://www.w3.org/2000/svg" viewBox="0 0 20 20"><defs><style>.cls-1{fill:#fff;}</style></defs><path class="cls-1" d="M5.31,16a1.35,1.35,0,0,1-.84-.28,1.23,1.23,0,0,1-.48-.9c0-.18,0-.37,0-.56V5.42A1.93,1.93,0,0,1,4,5,1.3,1.3,0,0,1,5.26,4H14.7a1.28,1.28,0,0,1,.85.3,1.19,1.19,0,0,1,.46.88c0,.19,0,.39,0,.59v8.84a1.46,1.46,0,0,1-.15.72,1.27,1.27,0,0,1-1.15.7Zm0-11A.3.3,0,0,0,5,5.2a.78.78,0,0,0,0,.22v8.86c0,.17,0,.33,0,.5s0,.1.1.17a.33.33,0,0,0,.22.07h9.42a.27.27,0,0,0,.27-.17.61.61,0,0,0,0-.25V5.75c0-.18,0-.36,0-.53a.21.21,0,0,0-.09-.17A.32.32,0,0,0,14.71,5H5.26Z"/><g id="TEhikN"><path class="cls-1" d="M10.31,9.41c0-.05,0-.08,0-.11s0-.32,0-.47,0-.07-.07-.08H9c-.14,0-.13,0-.13.13V13.4s0,.07.06.06h1.31c.08,0,.08,0,.08-.08V11a1.81,1.81,0,0,1,.1-.61A.71.71,0,0,1,11,10a1.53,1.53,0,0,1,.37,0,.52.52,0,0,1,.38.19.58.58,0,0,1,.14.24A1.65,1.65,0,0,1,12,11v2.37c0,.1,0,.1.11.1h1.26c.1,0,.1,0,.1-.09v0c0-.86,0-1.71,0-2.57a4.87,4.87,0,0,0,0-.66,2.33,2.33,0,0,0-.27-.82,1.35,1.35,0,0,0-.6-.51,2.25,2.25,0,0,0-1-.14,1.62,1.62,0,0,0-.68.2,1.41,1.41,0,0,0-.4.33ZM6.52,11.1v2.31s0,.06.06.05H7.84c.15,0,.14,0,.14-.13V8.82c0-.05,0-.07-.06-.07H6.65c-.13,0-.13,0-.13.12Zm.74-3a.85.85,0,0,0,.85-.85.85.85,0,1,0-1.7,0A.84.84,0,0,0,7.26,8.12Z"/></g></svg>