<svg id="Layer_1" data-name="Layer 1" xmlns="http://www.w3.org/2000/svg" viewBox="0 0 20 20"><defs><style>.cls-1{fill:#fff;}</style></defs><path class="cls-1" d="M3.28,14.74a.51.51,0,0,1-.36-.15.51.51,0,0,1,0-.71L7,9.82a.51.51,0,0,1,.71,0,.5.5,0,0,1,0,.71L3.63,14.59A.49.49,0,0,1,3.28,14.74Z"/><path class="cls-1" d="M16.51,14.74a.5.5,0,0,1-.35-.15l-4.07-4.07a.5.5,0,1,1,.71-.71l4.07,4.07a.51.51,0,0,1,0,.71A.51.51,0,0,1,16.51,14.74Z"/><path class="cls-1" d="M16.76,14.84H3.25a.5.5,0,0,1-.5-.5V5.66a.5.5,0,0,1,.5-.5H16.76a.5.5,0,0,1,.5.5v8.68A.5.5,0,0,1,16.76,14.84Zm-13-1H16.26V6.16H3.75Z"/><path class="cls-1" d="M9.9,13a.51.51,0,0,1-.36-.15L2.92,6.19a.51.51,0,0,1,0-.71.5.5,0,0,1,.71,0L9.9,11.74l6.26-6.26a.5.5,0,0,1,.71,0,.51.51,0,0,1,0,.71L10.25,12.8A.5.5,0,0,1,9.9,13Z"/></svg>